# xmcd
#
# Track frame offsets: 
#        150
#        10105
#        20214
#        30623
#        41434
#        54053
#        65313
#        77467
#        89991
#        101870
#        110152
#        120351
#        138378
#        150093
#
# Disc length: 2165 seconds
#
# Revision: 0
# Processed by: cddbd v1.5.2PL0 Copyright (c) Steve Scherf et al.
# Submitted via: ExactAudioCopy v0.99pb5
#
DISCID=a908730e
DTITLE=Cash, Johnny - Ballad Of A Teenage Queen
DYEAR=1900
DGENRE=Country
TTITLE0=Ballad Of A Teenage Queen
TTITLE1=Get Rhythm
TTITLE2=There You Go
TTITLE3=Train Of Love
TTITLE4=Next In Line
TTITLE5=Don't Make It Go
TTITLE6=Home Of The Blues
TTITLE7=Give My Love To Rose
TTITLE8=Doin' My Time
TTITLE9=Guess Things Happen That Way
TTITLE10=The Ways Of A Woman In Love
TTITLE11=Orange Blossom Special (live)
TTITLE12=The Highwayman (live)
TTITLE13=Ring Of Fire (live)
EXTD=
EXTT0=
EXTT1=
EXTT2=
EXTT3=
EXTT4=
EXTT5=
EXTT6=
EXTT7=
EXTT8=
EXTT9=
EXTT10=
EXTT11=
EXTT12=
EXTT13=
PLAYORDER=
